<mxfile host="app.diagrams.net" modified="2021-11-23T10:13:42.327Z" agent="5.0 (Windows NT 10.0; Win64; x64) AppleWebKit/537.36 (KHTML, like Gecko) Chrome/96.0.4664.45 Safari/537.36" etag="ZhLh7WdSTTppLEL8WZOw" version="13.0.9" type="github">
  <diagram id="GiN0bcaVSq-Nco3qbVdd" name="Page-1">
    <mxGraphModel dx="1422" dy="772" grid="1" gridSize="10" guides="1" tooltips="1" connect="1" arrows="1" fold="1" page="1" pageScale="1" pageWidth="1169" pageHeight="1654" math="0" shadow="0">
      <root>
        <mxCell id="0" />
        <mxCell id="1" parent="0" />
        <mxCell id="2O2IhLBV_4dH4n86eigs-8" style="edgeStyle=orthogonalEdgeStyle;rounded=0;orthogonalLoop=1;jettySize=auto;html=1;entryX=0.5;entryY=0;entryDx=0;entryDy=0;" parent="1" source="2O2IhLBV_4dH4n86eigs-4" target="2O2IhLBV_4dH4n86eigs-5" edge="1">
          <mxGeometry relative="1" as="geometry" />
        </mxCell>
        <mxCell id="2O2IhLBV_4dH4n86eigs-4" value="Member order" style="ellipse;whiteSpace=wrap;html=1;" parent="1" vertex="1">
          <mxGeometry x="180" y="100" width="100" height="60" as="geometry" />
        </mxCell>
        <mxCell id="g3OG-kWZPn6Ce04aHaVN-3" value="" style="edgeStyle=orthogonalEdgeStyle;rounded=0;orthogonalLoop=1;jettySize=auto;html=1;" edge="1" parent="1" source="2O2IhLBV_4dH4n86eigs-5" target="g3OG-kWZPn6Ce04aHaVN-2">
          <mxGeometry relative="1" as="geometry" />
        </mxCell>
        <mxCell id="2O2IhLBV_4dH4n86eigs-5" value="Login" style="rounded=1;whiteSpace=wrap;html=1;" parent="1" vertex="1">
          <mxGeometry x="185" y="200" width="90" height="30" as="geometry" />
        </mxCell>
        <mxCell id="g3OG-kWZPn6Ce04aHaVN-6" value="" style="edgeStyle=orthogonalEdgeStyle;rounded=0;orthogonalLoop=1;jettySize=auto;html=1;" edge="1" parent="1" source="g3OG-kWZPn6Ce04aHaVN-2" target="g3OG-kWZPn6Ce04aHaVN-5">
          <mxGeometry relative="1" as="geometry" />
        </mxCell>
        <mxCell id="g3OG-kWZPn6Ce04aHaVN-2" value="View list product" style="rounded=1;whiteSpace=wrap;html=1;" vertex="1" parent="1">
          <mxGeometry x="185" y="270" width="90" height="30" as="geometry" />
        </mxCell>
        <mxCell id="g3OG-kWZPn6Ce04aHaVN-8" value="" style="edgeStyle=orthogonalEdgeStyle;rounded=0;orthogonalLoop=1;jettySize=auto;html=1;" edge="1" parent="1" source="g3OG-kWZPn6Ce04aHaVN-5" target="g3OG-kWZPn6Ce04aHaVN-7">
          <mxGeometry relative="1" as="geometry" />
        </mxCell>
        <mxCell id="g3OG-kWZPn6Ce04aHaVN-5" value="Choose&amp;nbsp;product&lt;br&gt;add to cart" style="rounded=1;whiteSpace=wrap;html=1;" vertex="1" parent="1">
          <mxGeometry x="180" y="340" width="100" height="40" as="geometry" />
        </mxCell>
        <mxCell id="g3OG-kWZPn6Ce04aHaVN-7" value="Choose&amp;nbsp;product&lt;br&gt;add to cart" style="rounded=1;whiteSpace=wrap;html=1;" vertex="1" parent="1">
          <mxGeometry x="180" y="420" width="100" height="40" as="geometry" />
        </mxCell>
      </root>
    </mxGraphModel>
  </diagram>
</mxfile>
